<svg xmlns="http://www.w3.org/2000/svg" width="480" height="480" viewBox="0 0 480 480" role="img" aria-labelledby="title desc">
  <title id="title">Abstract profile illustration</title>
  <desc id="desc">A simple geometric portrait placeholder for Manikanta.</desc>
  <rect width="480" height="480" fill="#ffffff"/>
  <path fill="#e8f3f1" d="M0 0h480v480H0z"/>
  <circle cx="348" cy="122" r="76" fill="#f4ddd9"/>
  <circle cx="184" cy="176" r="86" fill="#005e56"/>
  <path fill="#003f3a" d="M107 376c17-72 66-116 133-116s116 44 133 116v42H107v-42z"/>
  <circle cx="240" cy="184" r="72" fill="#f6c9bd"/>
  <path fill="#171b1f" d="M161 171c10-58 47-92 97-92 46 0 76 26 92 77-51-2-89-16-114-43-16 32-41 51-75 58z"/>
  <path fill="#ffffff" d="M188 256c31 30 73 30 104 0 3-3 8 1 6 5-12 29-34 45-58 45s-46-16-58-45c-2-4 3-8 6-5z"/>
  <rect x="70" y="70" width="340" height="340" rx="8" fill="none" stroke="#8b99a8" stroke-width="4"/>
</svg>
